<mxfile host="app.diagrams.net" agent="Mozilla/5.0 (Windows NT 10.0; Win64; x64) AppleWebKit/537.36 (KHTML, like Gecko) Chrome/129.0.0.0 Safari/537.36" version="24.8.0">
  <diagram name="Page-1" id="cUVQX13GJ6ZkemoAQel4">
    <mxGraphModel dx="2284" dy="772" grid="1" gridSize="10" guides="1" tooltips="1" connect="1" arrows="1" fold="1" page="1" pageScale="1" pageWidth="850" pageHeight="1100" math="0" shadow="0">
      <root>
        <mxCell id="0" />
        <mxCell id="1" parent="0" />
        <mxCell id="dBNrC0CsWkUo4_ppWMCl-29" value="" style="rounded=0;whiteSpace=wrap;html=1;" vertex="1" parent="1">
          <mxGeometry x="-40" y="440" width="1080" height="720" as="geometry" />
        </mxCell>
        <mxCell id="dBNrC0CsWkUo4_ppWMCl-24" value="Required Functionalities" style="swimlane;fontStyle=0;childLayout=stackLayout;horizontal=1;startSize=30;horizontalStack=0;resizeParent=1;resizeParentMax=0;resizeLast=0;collapsible=1;marginBottom=0;whiteSpace=wrap;html=1;fillColor=#ffcd28;gradientColor=#ffa500;strokeColor=#d79b00;" vertex="1" parent="1">
          <mxGeometry y="570" width="400" height="340" as="geometry">
            <mxRectangle y="570" width="170" height="30" as="alternateBounds" />
          </mxGeometry>
        </mxCell>
        <mxCell id="dBNrC0CsWkUo4_ppWMCl-25" value="URL Validation - Validate the given link before short URL generation" style="text;strokeColor=#36393d;fillColor=#f9f7ed;align=left;verticalAlign=middle;spacingLeft=4;spacingRight=4;overflow=hidden;points=[[0,0.5],[1,0.5]];portConstraint=eastwest;rotatable=0;whiteSpace=wrap;html=1;" vertex="1" parent="dBNrC0CsWkUo4_ppWMCl-24">
          <mxGeometry y="30" width="400" height="50" as="geometry" />
        </mxCell>
        <mxCell id="dBNrC0CsWkUo4_ppWMCl-26" value="&lt;div&gt;Expiry time validation - Ensure the validity period for the generated short URL&lt;/div&gt;&lt;div&gt;&lt;br&gt;&lt;/div&gt;" style="text;strokeColor=#36393d;fillColor=#f9f7ed;align=left;verticalAlign=middle;spacingLeft=4;spacingRight=4;overflow=hidden;points=[[0,0.5],[1,0.5]];portConstraint=eastwest;rotatable=0;whiteSpace=wrap;html=1;" vertex="1" parent="dBNrC0CsWkUo4_ppWMCl-24">
          <mxGeometry y="80" width="400" height="50" as="geometry" />
        </mxCell>
        <mxCell id="dBNrC0CsWkUo4_ppWMCl-27" value="&lt;div&gt;QR Code Module - Generation + Tracking&lt;span style=&quot;white-space: pre;&quot;&gt;&#x9;&lt;/span&gt;&lt;span style=&quot;white-space: pre;&quot;&gt;&#x9;&lt;/span&gt;&lt;span style=&quot;white-space: pre;&quot;&gt;&#x9;&lt;/span&gt;&lt;span style=&quot;white-space: pre;&quot;&gt;&#x9;&lt;/span&gt;&lt;/div&gt;" style="text;strokeColor=#36393d;fillColor=#f9f7ed;align=left;verticalAlign=middle;spacingLeft=4;spacingRight=4;overflow=hidden;points=[[0,0.5],[1,0.5]];portConstraint=eastwest;rotatable=0;whiteSpace=wrap;html=1;" vertex="1" parent="dBNrC0CsWkUo4_ppWMCl-24">
          <mxGeometry y="130" width="400" height="30" as="geometry" />
        </mxCell>
        <mxCell id="dBNrC0CsWkUo4_ppWMCl-32" value="Hit Limit - Validate the Hit limit before accessing the short URL if the URL is limited" style="text;strokeColor=#36393d;fillColor=#f9f7ed;align=left;verticalAlign=middle;spacingLeft=4;spacingRight=4;overflow=hidden;points=[[0,0.5],[1,0.5]];portConstraint=eastwest;rotatable=0;whiteSpace=wrap;html=1;" vertex="1" parent="dBNrC0CsWkUo4_ppWMCl-24">
          <mxGeometry y="160" width="400" height="60" as="geometry" />
        </mxCell>
        <mxCell id="dBNrC0CsWkUo4_ppWMCl-39" value="Fetch Short URL metadata using short URL or Unique ID - Retrieve all information" style="text;strokeColor=#36393d;fillColor=#f9f7ed;align=left;verticalAlign=middle;spacingLeft=4;spacingRight=4;overflow=hidden;points=[[0,0.5],[1,0.5]];portConstraint=eastwest;rotatable=0;whiteSpace=wrap;html=1;" vertex="1" parent="dBNrC0CsWkUo4_ppWMCl-24">
          <mxGeometry y="220" width="400" height="60" as="geometry" />
        </mxCell>
        <mxCell id="dBNrC0CsWkUo4_ppWMCl-40" value="Analytics and Reporting for all transactions" style="text;strokeColor=#36393d;fillColor=#f9f7ed;align=left;verticalAlign=middle;spacingLeft=4;spacingRight=4;overflow=hidden;points=[[0,0.5],[1,0.5]];portConstraint=eastwest;rotatable=0;whiteSpace=wrap;html=1;" vertex="1" parent="dBNrC0CsWkUo4_ppWMCl-24">
          <mxGeometry y="280" width="400" height="60" as="geometry" />
        </mxCell>
        <mxCell id="dBNrC0CsWkUo4_ppWMCl-28" value="" style="group;fontSize=20;" vertex="1" connectable="0" parent="1">
          <mxGeometry x="-40" y="40" width="480" height="330" as="geometry" />
        </mxCell>
        <mxCell id="dBNrC0CsWkUo4_ppWMCl-1" value="" style="rounded=0;whiteSpace=wrap;html=1;" vertex="1" parent="dBNrC0CsWkUo4_ppWMCl-28">
          <mxGeometry width="480" height="330" as="geometry" />
        </mxCell>
        <mxCell id="dBNrC0CsWkUo4_ppWMCl-6" value="" style="group" vertex="1" connectable="0" parent="dBNrC0CsWkUo4_ppWMCl-28">
          <mxGeometry x="30" y="70" width="120" height="80" as="geometry" />
        </mxCell>
        <mxCell id="dBNrC0CsWkUo4_ppWMCl-2" value="" style="shape=hexagon;perimeter=hexagonPerimeter2;whiteSpace=wrap;html=1;fixedSize=1;fillColor=#dae8fc;gradientColor=#7ea6e0;strokeColor=#6c8ebf;" vertex="1" parent="dBNrC0CsWkUo4_ppWMCl-6">
          <mxGeometry width="120" height="80" as="geometry" />
        </mxCell>
        <mxCell id="dBNrC0CsWkUo4_ppWMCl-3" value="Shortlink Service" style="text;html=1;align=center;verticalAlign=middle;whiteSpace=wrap;rounded=0;" vertex="1" parent="dBNrC0CsWkUo4_ppWMCl-6">
          <mxGeometry x="30" y="25" width="60" height="30" as="geometry" />
        </mxCell>
        <mxCell id="dBNrC0CsWkUo4_ppWMCl-7" value="" style="group" vertex="1" connectable="0" parent="dBNrC0CsWkUo4_ppWMCl-28">
          <mxGeometry x="180" y="70" width="120" height="80" as="geometry" />
        </mxCell>
        <mxCell id="dBNrC0CsWkUo4_ppWMCl-8" value="" style="shape=hexagon;perimeter=hexagonPerimeter2;whiteSpace=wrap;html=1;fixedSize=1;fillColor=#f8cecc;gradientColor=#ea6b66;strokeColor=#b85450;" vertex="1" parent="dBNrC0CsWkUo4_ppWMCl-7">
          <mxGeometry width="120" height="80" as="geometry" />
        </mxCell>
        <mxCell id="dBNrC0CsWkUo4_ppWMCl-9" value="Onelink Service" style="text;html=1;align=center;verticalAlign=middle;whiteSpace=wrap;rounded=0;" vertex="1" parent="dBNrC0CsWkUo4_ppWMCl-7">
          <mxGeometry x="30" y="25" width="60" height="30" as="geometry" />
        </mxCell>
        <mxCell id="dBNrC0CsWkUo4_ppWMCl-10" value="" style="group" vertex="1" connectable="0" parent="dBNrC0CsWkUo4_ppWMCl-28">
          <mxGeometry x="330" y="70" width="120" height="80" as="geometry" />
        </mxCell>
        <mxCell id="dBNrC0CsWkUo4_ppWMCl-11" value="" style="shape=hexagon;perimeter=hexagonPerimeter2;whiteSpace=wrap;html=1;fixedSize=1;fillColor=#e6d0de;gradientColor=#d5739d;strokeColor=#996185;" vertex="1" parent="dBNrC0CsWkUo4_ppWMCl-10">
          <mxGeometry width="120" height="80" as="geometry" />
        </mxCell>
        <mxCell id="dBNrC0CsWkUo4_ppWMCl-12" value="QR Code Service" style="text;html=1;align=center;verticalAlign=middle;whiteSpace=wrap;rounded=0;" vertex="1" parent="dBNrC0CsWkUo4_ppWMCl-10">
          <mxGeometry x="30" y="25" width="60" height="30" as="geometry" />
        </mxCell>
        <mxCell id="dBNrC0CsWkUo4_ppWMCl-14" value="" style="group" vertex="1" connectable="0" parent="dBNrC0CsWkUo4_ppWMCl-28">
          <mxGeometry x="30" y="200" width="120" height="80" as="geometry" />
        </mxCell>
        <mxCell id="dBNrC0CsWkUo4_ppWMCl-15" value="" style="shape=hexagon;perimeter=hexagonPerimeter2;whiteSpace=wrap;html=1;fixedSize=1;fillColor=#ffcd28;gradientColor=#ffa500;strokeColor=#d79b00;" vertex="1" parent="dBNrC0CsWkUo4_ppWMCl-14">
          <mxGeometry width="120" height="80" as="geometry" />
        </mxCell>
        <mxCell id="dBNrC0CsWkUo4_ppWMCl-16" value="Survey Creator" style="text;html=1;align=center;verticalAlign=middle;whiteSpace=wrap;rounded=0;" vertex="1" parent="dBNrC0CsWkUo4_ppWMCl-14">
          <mxGeometry x="30" y="25" width="60" height="30" as="geometry" />
        </mxCell>
        <mxCell id="dBNrC0CsWkUo4_ppWMCl-17" value="" style="group" vertex="1" connectable="0" parent="dBNrC0CsWkUo4_ppWMCl-28">
          <mxGeometry x="180" y="200" width="120" height="80" as="geometry" />
        </mxCell>
        <mxCell id="dBNrC0CsWkUo4_ppWMCl-18" value="" style="shape=hexagon;perimeter=hexagonPerimeter2;whiteSpace=wrap;html=1;fixedSize=1;fillColor=#f5f5f5;gradientColor=#b3b3b3;strokeColor=#666666;" vertex="1" parent="dBNrC0CsWkUo4_ppWMCl-17">
          <mxGeometry width="120" height="80" as="geometry" />
        </mxCell>
        <mxCell id="dBNrC0CsWkUo4_ppWMCl-19" value="Digital Business Card" style="text;html=1;align=center;verticalAlign=middle;whiteSpace=wrap;rounded=0;" vertex="1" parent="dBNrC0CsWkUo4_ppWMCl-17">
          <mxGeometry x="30" y="25" width="60" height="30" as="geometry" />
        </mxCell>
        <mxCell id="dBNrC0CsWkUo4_ppWMCl-20" value="" style="group" vertex="1" connectable="0" parent="dBNrC0CsWkUo4_ppWMCl-28">
          <mxGeometry x="330" y="200" width="120" height="80" as="geometry" />
        </mxCell>
        <mxCell id="dBNrC0CsWkUo4_ppWMCl-21" value="" style="shape=hexagon;perimeter=hexagonPerimeter2;whiteSpace=wrap;html=1;fixedSize=1;fillColor=#d5e8d4;gradientColor=#97d077;strokeColor=#82b366;" vertex="1" parent="dBNrC0CsWkUo4_ppWMCl-20">
          <mxGeometry width="120" height="80" as="geometry" />
        </mxCell>
        <mxCell id="dBNrC0CsWkUo4_ppWMCl-22" value="Service Builder UI" style="text;html=1;align=center;verticalAlign=middle;whiteSpace=wrap;rounded=0;" vertex="1" parent="dBNrC0CsWkUo4_ppWMCl-20">
          <mxGeometry x="30" y="25" width="60" height="30" as="geometry" />
        </mxCell>
        <mxCell id="dBNrC0CsWkUo4_ppWMCl-23" value="&lt;font style=&quot;font-size: 20px;&quot;&gt;DoLink Provided Services&lt;/font&gt;" style="text;html=1;align=center;verticalAlign=middle;whiteSpace=wrap;rounded=0;" vertex="1" parent="dBNrC0CsWkUo4_ppWMCl-28">
          <mxGeometry x="120" y="20" width="275" height="30" as="geometry" />
        </mxCell>
        <mxCell id="dBNrC0CsWkUo4_ppWMCl-30" value="Shortlink Service Detailed View" style="text;html=1;align=center;verticalAlign=middle;whiteSpace=wrap;rounded=0;fontSize=20;" vertex="1" parent="1">
          <mxGeometry x="-10" y="490" width="320" height="30" as="geometry" />
        </mxCell>
      </root>
    </mxGraphModel>
  </diagram>
</mxfile>
